<svg width="32" height="26" viewBox="0 0 32 26" fill="none" xmlns="http://www.w3.org/2000/svg">
<path d="M30.8571 0.428711H1.14286C0.510714 0.428711 0 0.939425 0 1.57157V24.4287C0 25.0609 0.510714 25.5716 1.14286 25.5716H30.8571C31.4893 25.5716 32 25.0609 32 24.4287V1.57157C32 0.939425 31.4893 0.428711 30.8571 0.428711ZM29.4286 4.38585V23.0001H2.57143V4.38585L1.58571 3.618L2.98929 1.81443L4.51786 3.00371H27.4857L29.0143 1.81443L30.4179 3.618L29.4286 4.38585ZM27.4857 3.00014L16 11.9287L4.51429 3.00014L2.98571 1.81085L1.58214 3.61442L2.56786 4.38228L14.7679 13.868C15.1187 14.1406 15.5504 14.2885 15.9946 14.2885C16.4389 14.2885 16.8706 14.1406 17.2214 13.868L29.4286 4.38585L30.4143 3.618L29.0107 1.81443L27.4857 3.00014Z" fill="#222222"/>
</svg>
