<svg width="32" height="32" viewBox="0 0 32 32" fill="none" xmlns="http://www.w3.org/2000/svg">
<path d="M7.30894 2.6561C7.19087 2.50422 7.04184 2.37921 6.87175 2.28935C6.70165 2.1995 6.51438 2.14686 6.32238 2.13495C6.13038 2.12303 5.93804 2.1521 5.75813 2.22023C5.57823 2.28836 5.41488 2.39399 5.27894 2.5301L3.21094 4.6001C2.24494 5.5681 1.88894 6.9381 2.31094 8.1401C4.06242 13.1153 6.91153 17.6323 10.6469 21.3561C14.3708 25.0915 18.8878 27.9406 23.8629 29.6921C25.0649 30.1141 26.4349 29.7581 27.4029 28.7921L29.4709 26.7241C29.6071 26.5882 29.7127 26.4248 29.7808 26.2449C29.8489 26.065 29.878 25.8727 29.8661 25.6807C29.8542 25.4887 29.8015 25.3014 29.7117 25.1313C29.6218 24.9612 29.4968 24.8122 29.3449 24.6941L24.7309 21.1061C24.5687 20.9803 24.38 20.8929 24.179 20.8506C23.9781 20.8084 23.7702 20.8123 23.5709 20.8621L19.1909 21.9561C18.6063 22.1022 17.9938 22.0945 17.413 21.9336C16.8323 21.7727 16.3031 21.4642 15.8769 21.0381L10.9649 16.1241C10.5385 15.6982 10.2296 15.1691 10.0684 14.5883C9.90714 14.0075 9.89907 13.3949 10.0449 12.8101L11.1409 8.4301C11.1908 8.23089 11.1947 8.02297 11.1524 7.82203C11.1101 7.62108 11.0228 7.43236 10.8969 7.2701L7.30894 2.6561ZM3.76894 1.0221C4.11893 0.672001 4.5394 0.400362 5.00242 0.225224C5.46544 0.0500859 5.96043 -0.0245448 6.4545 0.00628779C6.94858 0.0371204 7.43045 0.172711 7.8681 0.404055C8.30576 0.6354 8.68919 0.957205 8.99294 1.3481L12.5809 5.9601C13.2389 6.8061 13.4709 7.9081 13.2109 8.9481L12.1169 13.3281C12.0604 13.555 12.0634 13.7926 12.1258 14.0179C12.1882 14.2433 12.3078 14.4486 12.4729 14.6141L17.3869 19.5281C17.5526 19.6936 17.7583 19.8134 17.984 19.8758C18.2098 19.9382 18.4478 19.941 18.6749 19.8841L23.0529 18.7901C23.5662 18.6618 24.1019 18.6518 24.6195 18.761C25.1371 18.8701 25.6232 19.0955 26.0409 19.4201L30.6529 23.0081C32.3109 24.2981 32.4629 26.7481 30.9789 28.2301L28.9109 30.2981C27.4309 31.7781 25.2189 32.4281 23.1569 31.7021C17.8793 29.8452 13.0875 26.8238 9.13694 22.8621C5.17552 18.9121 2.15416 14.121 0.296942 8.8441C-0.427058 6.7841 0.222942 4.5701 1.70294 3.0901L3.77094 1.0221H3.76894Z" fill="#222222"/>
</svg>
